<svg class="svg-icon" style="width: 1em; height: 1em;vertical-align: middle;fill: currentColor;overflow: hidden;" viewBox="0 0 1024 1024" version="1.1" xmlns="http://www.w3.org/2000/svg"><path d="M512 682.666667c-204.8 0-369.777778 62.577778-369.777778 142.222222s164.977778 142.222222 369.777778 142.222222 369.777778-62.577778 369.777778-142.222222-164.977778-142.222222-369.777778-142.222222z m0 199.111111c-142.222222 0-256-25.6-256-56.888889s113.777778-56.888889 256-56.888889 256 25.6 256 56.888889-113.777778 56.888889-256 56.888889z" fill="" /><path d="M512 56.888889c-142.222222 0-256 113.777778-256 256s256 540.444444 256 540.444444 256-398.222222 256-540.444444-113.777778-256-256-256z m0 369.777778c-62.577778 0-113.777778-51.2-113.777778-113.777778s51.2-113.777778 113.777778-113.777778 113.777778 51.2 113.777778 113.777778-51.2 113.777778-113.777778 113.777778z" fill="" /></svg>