<?xml version="1.0" encoding="utf-8"?>
<!-- Generator: Adobe Illustrator 28.2.0, SVG Export Plug-In . SVG Version: 6.00 Build 0)  -->
<svg version="1.1" id="Layer_1" xmlns="http://www.w3.org/2000/svg" xmlns:xlink="http://www.w3.org/1999/xlink" x="0px" y="0px"
	 viewBox="0 0 300 133" style="enable-background:new 0 0 300 133;" xml:space="preserve">
<style type="text/css">
	.st0{fill:#FFFFFF;}
</style>
<g>
	<path class="st0" d="M20.48,32.23c0-7.2,0-13.59,0-20.42c53.34,0,106.67,0,160.36,0c0,6.69,0,13.2,0,20.2
		c-2.07,0.1-4.01,0.27-5.95,0.27c-18.32,0-36.65,0.04-54.97-0.1c-3.38-0.02-5.91,0.73-8.28,3.38
		c-19.52,21.88-39.18,43.62-59.68,66.39c43.7,0,86.16,0,128.93,0c0,6.84,0,13.01,0,19.64c-53.44,0-106.66,0-160.52,0
		c0.06-8.43-1.26-16.04,6.32-23.7C47.11,77.31,66.18,55.4,85.77,34c0.3-0.32,0.4-0.82,0.85-1.77
		C64.55,32.23,42.86,32.23,20.48,32.23z"/>
	<path class="st0" d="M193.37,121.69c0-36.76,0-73.2,0-110.38c16.15,1.11,32.44-2.35,48.14,2.33c20.21,6.01,32.53,19.87,36.83,40.43
		c5.52,26.34-6.44,52.05-29.76,62.71c-6.16,2.82-13.33,4.26-20.14,4.7C216.9,122.24,205.26,121.69,193.37,121.69z M214.31,32.2
		c0,23.44,0,46.6,0,69.69c29.08,3.34,44.08-15.68,44.36-35.07C258.93,48.89,245.45,27.82,214.31,32.2z"/>
	<path class="st0" d="M110.85,76.79c6.6-7.24,12.22-13.49,17.96-19.61c0.67-0.72,2.06-1.08,3.12-1.08
		c16.12-0.07,32.23-0.05,49.14-0.05c0,6.54,0.15,12.73-0.2,18.89c-0.04,0.73-2.78,1.85-4.28,1.86c-12.3,0.12-24.61,0-36.91-0.02
		C130.57,76.77,121.45,76.79,110.85,76.79z"/>
</g>
</svg>
