<?xml version="1.0" encoding="utf-8"?>
<!-- Generator: Adobe Illustrator 28.2.0, SVG Export Plug-In . SVG Version: 6.00 Build 0)  -->
<svg version="1.1" id="Layer_1" xmlns="http://www.w3.org/2000/svg" xmlns:xlink="http://www.w3.org/1999/xlink" x="0px" y="0px"
	 viewBox="0 0 675 675" style="enable-background:new 0 0 675 675;" xml:space="preserve">
<style type="text/css">
	.st0{fill:#FFFFFF;}
	.st1{fill:#FD5E02;}
	.st2{fill:#1B2530;}
	.st3{fill:#464E56;}
	.st4{fill:#343A3F;}
	.st5{fill:#FEFEFE;}
</style>
<rect x="244" class="st0" width="219" height="402"/>
<rect class="st1" width="299.75" height="364.71"/>
<rect x="375.25" class="st1" width="299.75" height="363.33"/>
<path class="st2" d="M398.23,114.46c0.98,0.23,1.97,0.47,2.95,0.7c0,0,0.14,0,0.14,0c0.92,0.26,1.84,0.51,2.76,0.77
	c0.52,0.16,1.06,0.33,1.59,0.49c0.88,0.47,1.75,0.95,2.63,1.42c0,0,0.09,0.06,0.09,0.06c2.74,1.76,5.53,3.45,7.18,6.42
	c0,0,0.12,0.14,0.12,0.14c0.64,0.81,1.27,1.62,1.91,2.42c0.43,1.11,0.84,2.24,1.28,3.35c2.45,6.1,1.42,12.45,1.42,18.73
	c-0.04,53.06-0.09,106.12-0.09,159.18c0,12.96,0.16,25.91,0.25,38.87c-0.86,1.02-1.66,2.09-2.6,3.03
	c-26.02,26.03-52.08,52.03-78.06,78.11c-1.97,1.98-3.24,1.92-5.16-0.01c-10.69-10.78-21.38-21.55-32.5-31.9
	c-6.25-5.81-12.12-12.03-18.14-18.08c-10.16-10.22-20.3-20.47-30.44-30.7c-0.01-4.97-0.03-9.95-0.03-14.92
	c-0.03-63.88-0.05-127.76-0.13-191.64c-0.01-5.18,0.77-10.12,3.2-14.74c0.31-0.33,0.61-0.66,0.91-0.99c0,0-0.01,0.06-0.01,0.06
	c0.33-0.47,0.66-0.95,0.99-1.42c0,0,0.08-0.14,0.08-0.14c0.55-1.14,1.41-1.97,2.56-2.5c0.15-0.08,0.24-0.14,0.29-0.19
	c1.02-0.87,2.04-1.75,3.05-2.62c0.36-0.17,0.72-0.35,1.08-0.53c1.52-1.04,3.15-1.81,4.98-2.07c4.63-1.11,9.27-2.01,13.91,0
	c1.23,0.5,2.47,1.01,3.69,1.51c0.38,0.15,0.76,0.3,1.15,0.45c2.71,2.09,5.08,4.53,7.24,7.16c0,0-0.03,0.13-0.03,0.13l0.11,0.08
	c1.43,1.79,2.23,3.86,2.73,6.05c0.13,1.51,0.37,3.04,0.38,4.57c0.02,62.28,0.04,124.56,0.01,186.85c0,5.76,0.51,11.44,1.44,17.11
	c0.65,1.89,1.3,3.78,1.95,5.67c0,0,0.08,0.12,0.08,0.12c0.9,0.68,1.52,1.58,1.98,2.59c0.06,0.16,0.14,0.28,0.24,0.36
	c8.15,8.07,16.29,16.13,24.44,24.2c0,0,0.05,0.12,0.05,0.12l0.16,0.01c1.72,1.02,2.99,2.67,4.92,3.36c1.39,0.02,2.8,0.05,4.2,0.07
	c4.73-1.52,7.39-5.61,10.82-8.74c0.96-0.88,1.89-1.8,2.83-2.7c0,0,0.14-0.02,0.14-0.02l0.03-0.14c1.07-1.05,2.15-2.1,3.22-3.15
	c0.09,0.01,0.14-0.03,0.14-0.13c0.87-0.89,1.74-1.77,2.6-2.66c0.2-0.2,0.4-0.4,0.61-0.61c0.87-0.87,1.74-1.74,2.61-2.61
	c0,0,0.12-0.02,0.12-0.02l0.02-0.13c0.65-0.66,1.31-1.31,1.95-1.96c0.2-0.2,0.4-0.4,0.61-0.61c1.38-1.52,2.76-3.05,4.14-4.57
	c0,0,0.07-0.11,0.07-0.11c0.45-0.72,0.91-1.44,1.36-2.15c0.17-0.33,0.35-0.67,0.52-1.01c0.69-1.45,1.37-2.89,2.06-4.33
	c0.03-0.18,0.06-0.37,0.08-0.55c0.2-1.02,0.4-2.04,0.6-3.05c0.06-0.63,0.17-1.27,0.17-1.92c0-65.69-0.01-131.39-0.01-197.08
	c0.15-1.01,0.31-2.02,0.46-3.02c0.12-0.1,0.17-0.26,0.14-0.5c0.14-1.49,0.04-3.01,0.68-4.41c0.57-1.36,1.15-2.74,1.72-4.11
	c0.69-0.92,1.37-1.84,2.06-2.76c0,0,0.09-0.06,0.09-0.06l-0.01-0.11c1.12-1.12,2.24-2.23,3.35-3.34c0.77-0.57,1.55-1.14,2.32-1.71
	c0.8-0.51,1.6-1.01,2.4-1.52C390.68,115.3,394.38,114.4,398.23,114.46z"/>
<path class="st1" d="M420.45,347c-0.09-12.96-0.25-25.91-0.25-38.87c0-53.06,0.04-106.12,0.09-159.18
	c0.01-6.28,1.03-12.64-1.42-18.73c-0.45-1.11-0.86-2.24-1.28-3.35c3.52-0.65,6.61,1.05,9.5,2.36c10.17,4.63,20.34,9.35,29.78,15.4
	c9.02,5.77,18.21,11.3,26.28,18.44c9.04,7.99,17.99,16.06,25.87,25.25c5.69,6.63,11.39,13.23,16.24,20.53
	c7.24,10.89,13.86,22.1,19.44,33.98c6.92,14.73,12.01,30.03,15.86,45.77c2.5,10.2,4.43,20.5,5.25,31.03
	c0.41,5.28,0.56,10.59,1.05,15.87c0.88,9.48-0.78,18.99-0.8,28.51c0,0.47,0.06,1.14-0.62,1.38c0-2.42-1.84-1.77-3.13-1.78
	c-9.41-0.04-18.82-0.03-28.23-0.01c-21.26,0.03-42.52,0.06-63.78,0.09c-0.99,0-1.99-0.07-2.98-0.11c3.05-3.18,6.18-6.28,9.14-9.55
	c4.71-5.19,6.84-11.23,5.72-18.3c-0.9-5.67-4.13-9.63-8.29-13.45c-6.59-6.05-21.93-6.49-29,0.81
	C436.97,331.28,429.03,339.47,420.45,347z"/>
<path class="st1" d="M256.58,120.86c-2.43,4.62-3.21,9.56-3.2,14.74c0.07,63.88,0.09,127.76,0.13,191.64
	c0,4.97,0.02,9.95,0.03,14.92c-8-6.88-15.12-14.66-22.58-22.08c-4.13-4.11-8.75-6.85-14.59-7.82c-9.03-1.5-20.22,4.78-23.21,13.45
	c-3.23,9.4-1.23,17.63,5.66,24.72c2.59,2.66,5.22,5.28,7.83,7.92c-26.6-0.01-53.2-0.02-79.8-0.02c-5.21,0-10.42,0.12-15.63,0.03
	c-1.61-0.03-2.27,0.47-2.16,2.02c-0.99-0.55-0.77-1.54-0.77-2.36c-0.05-12.97-1.01-26.04,0.28-38.88
	c0.72-7.19,0.14-14.65,2.76-21.87c1.42-3.91,1.68-8.6,2.31-12.94c0.62-4.31,2.19-8.3,3.14-12.47c2.14-9.46,5.68-18.53,9.53-27.44
	c6.69-15.47,14.88-30.07,24.95-43.63c7.99-10.76,16.43-21.08,26.05-30.46c12.58-12.27,26.65-22.48,41.48-31.81
	c8.54-5.38,17.64-9.6,26.73-13.81C248.99,123.1,252.56,121.16,256.58,120.86z"/>
<path class="st1" d="M348.88,159.54c0,52.62,0.02,105.25-0.02,157.87c-0.01,8.48-1.78,15.36-7.42,19.15
	c-5.75,3.86-12.07-0.23-14.86-8.51c-1.3-3.86-1.84-8.16-1.84-12.73c0.09-73.44,0.05-146.88,0.12-220.31
	c0.03-30.45,0.23-60.91,0.37-91.36c0.04-8.75,0.4-9.4,6.21-9.61c4.43-0.16,8.87,0.23,13.3,0.04c2.73-0.12,3.68,1.42,3.69,5.6
	c0.05,32.47,0.25,64.95,0.34,97.42c0.06,20.81,0.01,41.63,0.01,62.44C348.82,159.54,348.85,159.54,348.88,159.54z"/>
<path class="st1" d="M284.42,115.75c-4.64-2.01-9.28-1.11-13.91,0c4.52-1.87,9.06-2.27,13.67-0.36c0.19,0.08,0.37,0.21,0.55,0.31
	C284.63,115.72,284.52,115.73,284.42,115.75z"/>
<path class="st1" d="M398.23,114.46c-3.86-0.06-7.55,0.84-11.2,1.91c3.47-1.57,7.08-2.35,10.89-2.19c0.21,0.01,0.41,0.1,0.61,0.16
	C398.43,114.38,398.33,114.42,398.23,114.46z"/>
<path class="st1" d="M339.15,376.16c-1.41-0.03-2.81-0.05-4.2-0.07C336.37,375.71,337.77,375.62,339.15,376.16z"/>
<path class="st1" d="M376.82,125.88c-0.58,1.37-1.15,2.75-1.72,4.11c-0.16-1.5,0.68-2.67,1.24-3.93c0.08-0.18,0.27-0.31,0.41-0.46
	C376.77,125.69,376.8,125.78,376.82,125.88z"/>
<path class="st1" d="M384.63,117.89c-0.78,0.57-1.55,1.15-2.32,1.71c0.13-1.19,1.17-1.41,1.97-1.89c0.09-0.05,0.2-0.07,0.3-0.11
	C384.6,117.7,384.61,117.79,384.63,117.89z"/>
<path class="st1" d="M405.67,116.41c-0.53-0.16-1.06-0.33-1.59-0.49c0.62-0.54,1.05,0.3,1.61,0.21c0.06-0.01,0.14,0.13,0.22,0.2
	C405.82,116.36,405.75,116.39,405.67,116.41z"/>
<path class="st1" d="M265.54,117.82c-0.36,0.18-0.73,0.35-1.08,0.53C264.62,117.75,264.96,117.54,265.54,117.82z"/>
<path class="st1" d="M289.26,117.71c-0.39-0.15-0.77-0.3-1.15-0.45c0.46-0.6,0.77,0.08,1.13,0.15
	C289.55,117.46,289.54,117.65,289.26,117.71z"/>
<path class="st1" d="M370.93,344.85c-0.18,0.34-0.35,0.68-0.52,1.01c-0.57-0.5,0.21-0.75,0.22-1.14c0-0.04,0.16-0.08,0.25-0.12
	C370.89,344.68,370.91,344.77,370.93,344.85z"/>
<path class="st1" d="M364.84,352.68c-0.2,0.2-0.41,0.41-0.61,0.61c-0.02-0.15-0.1-0.38-0.05-0.43
	C364.37,352.73,364.5,352.24,364.84,352.68z"/>
<path class="st1" d="M359.52,358.01c-0.2,0.2-0.41,0.41-0.61,0.61c-0.44-0.35,0.05-0.48,0.18-0.66
	C359.14,357.9,359.38,357.99,359.52,358.01z"/>
<path class="st1" d="M373.07,339.97c-0.03,0.19-0.06,0.37-0.08,0.55C372.6,340.27,372.5,340.07,373.07,339.97z"/>
<path class="st1" d="M374.42,134.4c0.03,0.24-0.01,0.41-0.14,0.5c-0.47-0.08-0.25-0.4-0.23-0.65
	C374.18,134.3,374.3,134.35,374.42,134.4z"/>
<path class="st1" d="M261.4,120.96c-0.04,0.05-0.14,0.12-0.29,0.19c-0.04-0.12-0.09-0.24-0.14-0.36
	C261.12,120.85,261.26,120.9,261.4,120.96z"/>
<path class="st1" d="M305.38,348.4c-0.1-0.08-0.18-0.21-0.24-0.36c0.12-0.02,0.25-0.05,0.37-0.07
	C305.47,348.11,305.42,348.25,305.38,348.4z"/>
<path class="st1" d="M378.96,122.94l0.01,0.11c0,0-0.09,0.06-0.09,0.06c-0.07-0.04-0.15-0.09-0.22-0.13
	C378.76,122.97,378.86,122.96,378.96,122.94z"/>
<path class="st1" d="M258.56,123.65c0,0-0.08,0.15-0.08,0.14c-0.08-0.04-0.23-0.1-0.23-0.12
	C258.31,123.4,258.42,123.39,258.56,123.65z"/>
<path class="st1" d="M415.68,124.45c0,0-0.12-0.15-0.12-0.14c0.06-0.06,0.12-0.13,0.18-0.19c0.06,0.06,0.11,0.12,0.17,0.18
	C415.83,124.35,415.75,124.4,415.68,124.45z"/>
<path class="st1" d="M296.59,125.08l-0.11-0.08c0,0,0.03-0.13,0.03-0.13c0.07-0.04,0.15-0.07,0.22-0.11
	C296.68,124.86,296.63,124.97,296.59,125.08z"/>
<path class="st1" d="M401.32,115.16c0,0-0.14,0-0.14,0c0.04-0.13,0.08-0.26,0.13-0.38C401.31,114.9,401.32,115.03,401.32,115.16z"/>
<path class="st1" d="M408.38,117.89c0,0-0.09-0.06-0.09-0.06c0.05-0.08,0.1-0.17,0.15-0.25c0.06,0.05,0.11,0.09,0.17,0.14
	C408.53,117.78,408.46,117.84,408.38,117.89z"/>
<path class="st1" d="M303.17,345.44c0,0-0.08-0.12-0.08-0.12c0.07-0.06,0.13-0.13,0.2-0.2
	C303.25,345.23,303.21,345.34,303.17,345.44z"/>
<path class="st1" d="M369.05,348c0,0-0.07,0.11-0.07,0.11c-0.08-0.05-0.17-0.1-0.25-0.15C368.84,347.98,368.94,347.99,369.05,348z"
	/>
<path class="st1" d="M362.28,355.25l-0.02,0.13c0,0-0.13,0.02-0.12,0.02c-0.06-0.06-0.12-0.11-0.17-0.17
	C362.07,355.24,362.18,355.25,362.28,355.25z"/>
<path class="st1" d="M356.32,361.28c0,0.1-0.04,0.14-0.14,0.13c-0.06-0.06-0.13-0.12-0.19-0.18
	C356.1,361.25,356.21,361.26,356.32,361.28z"/>
<path class="st1" d="M352.96,364.56l-0.03,0.14c0,0-0.14,0.02-0.14,0.02c-0.05-0.06-0.11-0.12-0.17-0.18
	C352.74,364.55,352.85,364.55,352.96,364.56z"/>
<path class="st1" d="M330.03,372.73l-0.16-0.01c0,0-0.05-0.12-0.05-0.12C330.12,372.27,330.14,372.39,330.03,372.73z"/>
<polygon class="st1" points="257.49,125.21 257.5,125.16 257.46,124.97 "/>
<path class="st3" d="M207.07,420.46c-2.61-2.64-5.24-5.25-7.83-7.92c-6.89-7.09-8.89-15.32-5.66-24.72
	c2.99-8.67,14.18-14.95,23.21-13.45c5.85,0.97,10.47,3.71,14.59,7.82c7.46,7.43,14.58,15.21,22.58,22.08
	c10.15,10.23,20.28,20.48,30.44,30.7c6.02,6.06,11.89,12.27,18.14,18.08c11.12,10.35,21.81,21.12,32.5,31.9
	c1.92,1.93,3.19,1.99,5.16,0.01c25.98-26.07,52.04-52.08,78.06-78.11c0.94-0.94,1.73-2.01,2.6-3.03
	c8.58-7.53,16.52-15.72,24.45-23.9c7.07-7.3,22.4-6.86,29-0.81c4.16,3.82,7.4,7.78,8.29,13.45c1.12,7.07-1.01,13.11-5.72,18.3
	c-2.96,3.26-6.09,6.37-9.14,9.55c-2.28,0.84-3.69,2.78-5.32,4.4c-7.41,7.33-14.54,14.95-22.15,22.06
	c-16.46,15.35-31.72,31.92-48.11,47.32c-15.75,14.81-30.61,30.5-46.15,45.52c-5.31,5.14-11.53,5.24-16.76,0.07
	c-7.09-7.02-13.93-14.3-21.21-21.11c-15.62-14.62-30.25-30.24-45.78-44.93c-11.6-10.97-22.53-22.61-34.22-33.46
	c-6.5-6.03-12.63-12.43-19.11-18.47C208.4,421.27,207.7,420.9,207.07,420.46z"/>
<path class="st4" d="M207.07,384.93c-2.61-2.64-5.24-5.25-7.83-7.92c-6.89-7.09-8.89-15.32-5.66-24.72
	c2.99-8.67,14.18-14.95,23.21-13.45c5.85,0.97,10.47,3.71,14.59,7.82c7.46,7.43,14.58,15.21,22.58,22.08
	c10.15,10.23,20.28,20.48,30.44,30.7c6.02,6.06,11.89,12.27,18.14,18.08c11.12,10.35,21.81,21.12,32.5,31.9
	c1.92,1.93,3.19,1.99,5.16,0.01c25.98-26.07,52.04-52.08,78.06-78.11c0.94-0.94,1.73-2.01,2.6-3.03
	c8.58-7.53,16.52-15.72,24.45-23.9c7.07-7.3,22.4-6.86,29-0.81c4.16,3.82,7.4,7.78,8.29,13.45c1.12,7.07-1.01,13.11-5.72,18.3
	c-2.96,3.26-6.09,6.37-9.14,9.55c-2.28,0.84-3.69,2.78-5.32,4.4c-7.41,7.33-14.54,14.95-22.15,22.06
	c-16.46,15.35-31.72,31.92-48.11,47.32c-15.75,14.81-30.61,30.5-46.15,45.52c-5.31,5.14-11.53,5.24-16.76,0.07
	c-7.09-7.02-13.93-14.3-21.21-21.11c-15.62-14.62-30.25-30.24-45.78-44.93c-11.6-10.97-22.53-22.61-34.22-33.46
	c-6.5-6.03-12.63-12.43-19.11-18.47C208.4,385.74,207.7,385.37,207.07,384.93z"/>
<path class="st5" d="M207.07,363.83c-2.61-2.64-5.24-5.25-7.83-7.92c-6.89-7.09-8.89-15.32-5.66-24.72
	c2.99-8.67,14.18-14.95,23.21-13.45c5.85,0.97,10.47,3.71,14.59,7.82c7.46,7.43,14.58,15.21,22.58,22.08
	c10.15,10.23,20.28,20.48,30.44,30.7c6.02,6.06,11.89,12.27,18.14,18.08c11.12,10.35,21.81,21.12,32.5,31.9
	c1.92,1.93,3.19,1.99,5.16,0.01c25.98-26.07,52.04-52.08,78.06-78.11c0.94-0.94,1.73-2.01,2.6-3.03
	c8.58-7.53,16.52-15.72,24.45-23.9c7.07-7.3,22.4-6.86,29-0.81c4.16,3.82,7.4,7.78,8.29,13.45c1.12,7.07-1.01,13.11-5.72,18.3
	c-2.96,3.26-6.09,6.37-9.14,9.55c-2.28,0.84-3.69,2.78-5.32,4.4c-7.41,7.33-14.54,14.95-22.15,22.06
	c-16.46,15.35-31.72,31.92-48.11,47.32c-15.75,14.81-30.61,30.5-46.15,45.52c-5.31,5.14-11.53,5.24-16.76,0.07
	c-7.09-7.02-13.93-14.3-21.21-21.11c-15.62-14.62-30.25-30.24-45.78-44.93c-11.6-10.97-22.53-22.61-34.22-33.46
	c-6.5-6.03-12.63-12.43-19.11-18.47C208.4,364.64,207.7,364.27,207.07,363.83z"/>
<path class="st5" d="M362.38,340.63c0.29-0.36,0.53-0.77,0.8-1.16c2.64-2.89,5.09-6.04,7.53-9.19c2.18-2.81,6.9-2.64,8.93-0.31
	c1.28,1.47,2.28,2.99,2.55,5.17c0.34,2.72-0.31,5.04-1.76,7.03c-0.91,1.25-1.88,2.45-2.81,3.67c-0.7,0.32-1.14,1.07-1.64,1.69
	c-2.28,2.82-4.48,5.75-6.82,8.48c-5.07,5.9-9.77,12.27-14.81,18.19c-4.85,5.69-9.43,11.72-14.21,17.5
	c-1.64,1.97-3.55,2.01-5.16,0.03c-2.18-2.7-4.29-5.5-6.53-8.12c-4.81-5.62-9.32-11.62-14.1-17.27c-3.57-4.22-6.94-8.69-10.54-12.86
	c-2-2.32-3.89-4.78-5.89-7.1c-0.17-0.2-0.38-0.34-0.58-0.51c-0.8-1.01-1.61-2.02-2.41-3.04c-2.12-2.72-2.74-5.89-1.74-9.5
	c0.92-3.33,4.37-5.75,7.15-5.17c1.8,0.37,3.22,1.43,4.49,3.01c2.3,2.86,4.49,5.85,6.95,8.49c3.12,3.93,6.25,7.87,9.37,11.8
	c1.85,2.33,3.66,4.72,5.59,6.95"/>
<rect x="373.87" y="253.66" class="st2" width="28.87" height="106.6"/>
<rect x="270.87" y="241.45" class="st2" width="28.87" height="112.15"/>
</svg>
